<mxfile host="app.diagrams.net" agent="Mozilla/5.0 (Windows NT 10.0; Win64; x64) AppleWebKit/537.36 (KHTML, like Gecko) Chrome/130.0.0.0 Safari/537.36" version="24.8.0">
  <diagram id="C5RBs43oDa-KdzZeNtuy" name="Page-1">
    <mxGraphModel dx="712" dy="745" grid="1" gridSize="10" guides="1" tooltips="1" connect="1" arrows="1" fold="1" page="1" pageScale="1" pageWidth="827" pageHeight="1169" math="0" shadow="0">
      <root>
        <mxCell id="WIyWlLk6GJQsqaUBKTNV-0" />
        <mxCell id="WIyWlLk6GJQsqaUBKTNV-1" parent="WIyWlLk6GJQsqaUBKTNV-0" />
        <mxCell id="EAfGuXRZqebjT4lLK5da-5" style="edgeStyle=orthogonalEdgeStyle;rounded=0;orthogonalLoop=1;jettySize=auto;html=1;exitX=0.5;exitY=1;exitDx=0;exitDy=0;" edge="1" parent="WIyWlLk6GJQsqaUBKTNV-1" source="EAfGuXRZqebjT4lLK5da-0" target="EAfGuXRZqebjT4lLK5da-1">
          <mxGeometry relative="1" as="geometry" />
        </mxCell>
        <mxCell id="EAfGuXRZqebjT4lLK5da-0" value="start" style="ellipse;whiteSpace=wrap;html=1;" vertex="1" parent="WIyWlLk6GJQsqaUBKTNV-1">
          <mxGeometry x="330" y="30" width="120" height="50" as="geometry" />
        </mxCell>
        <mxCell id="EAfGuXRZqebjT4lLK5da-6" style="edgeStyle=orthogonalEdgeStyle;rounded=0;orthogonalLoop=1;jettySize=auto;html=1;exitX=0.5;exitY=1;exitDx=0;exitDy=0;" edge="1" parent="WIyWlLk6GJQsqaUBKTNV-1" source="EAfGuXRZqebjT4lLK5da-1" target="EAfGuXRZqebjT4lLK5da-2">
          <mxGeometry relative="1" as="geometry" />
        </mxCell>
        <mxCell id="EAfGuXRZqebjT4lLK5da-1" value="define the list &quot;neighbours&quot;" style="rounded=1;whiteSpace=wrap;html=1;" vertex="1" parent="WIyWlLk6GJQsqaUBKTNV-1">
          <mxGeometry x="330" y="120" width="120" height="60" as="geometry" />
        </mxCell>
        <mxCell id="EAfGuXRZqebjT4lLK5da-2" value="define top, bottom. left and right as results of the check_cell function" style="rounded=1;whiteSpace=wrap;html=1;" vertex="1" parent="WIyWlLk6GJQsqaUBKTNV-1">
          <mxGeometry x="330" y="220" width="120" height="60" as="geometry" />
        </mxCell>
        <mxCell id="EAfGuXRZqebjT4lLK5da-16" style="edgeStyle=orthogonalEdgeStyle;rounded=0;orthogonalLoop=1;jettySize=auto;html=1;exitX=1;exitY=0.5;exitDx=0;exitDy=0;entryX=0;entryY=0.5;entryDx=0;entryDy=0;" edge="1" parent="WIyWlLk6GJQsqaUBKTNV-1" source="EAfGuXRZqebjT4lLK5da-3" target="EAfGuXRZqebjT4lLK5da-9">
          <mxGeometry relative="1" as="geometry" />
        </mxCell>
        <mxCell id="EAfGuXRZqebjT4lLK5da-18" style="edgeStyle=orthogonalEdgeStyle;rounded=0;orthogonalLoop=1;jettySize=auto;html=1;exitX=0.5;exitY=1;exitDx=0;exitDy=0;entryX=0.5;entryY=0;entryDx=0;entryDy=0;" edge="1" parent="WIyWlLk6GJQsqaUBKTNV-1" source="EAfGuXRZqebjT4lLK5da-3" target="EAfGuXRZqebjT4lLK5da-10">
          <mxGeometry relative="1" as="geometry" />
        </mxCell>
        <mxCell id="EAfGuXRZqebjT4lLK5da-3" value="is top true and top isnt visited?" style="rhombus;whiteSpace=wrap;html=1;" vertex="1" parent="WIyWlLk6GJQsqaUBKTNV-1">
          <mxGeometry x="332.5" y="310" width="115" height="110" as="geometry" />
        </mxCell>
        <mxCell id="EAfGuXRZqebjT4lLK5da-8" style="edgeStyle=orthogonalEdgeStyle;rounded=0;orthogonalLoop=1;jettySize=auto;html=1;exitX=0.5;exitY=1;exitDx=0;exitDy=0;entryX=0.5;entryY=0.064;entryDx=0;entryDy=0;entryPerimeter=0;" edge="1" parent="WIyWlLk6GJQsqaUBKTNV-1" source="EAfGuXRZqebjT4lLK5da-2" target="EAfGuXRZqebjT4lLK5da-3">
          <mxGeometry relative="1" as="geometry" />
        </mxCell>
        <mxCell id="EAfGuXRZqebjT4lLK5da-24" style="edgeStyle=orthogonalEdgeStyle;rounded=0;orthogonalLoop=1;jettySize=auto;html=1;exitX=1;exitY=0.5;exitDx=0;exitDy=0;entryX=0.5;entryY=0;entryDx=0;entryDy=0;" edge="1" parent="WIyWlLk6GJQsqaUBKTNV-1" source="EAfGuXRZqebjT4lLK5da-9" target="EAfGuXRZqebjT4lLK5da-10">
          <mxGeometry relative="1" as="geometry" />
        </mxCell>
        <mxCell id="EAfGuXRZqebjT4lLK5da-9" value="add result from check_cell: top result to the list" style="rounded=1;whiteSpace=wrap;html=1;" vertex="1" parent="WIyWlLk6GJQsqaUBKTNV-1">
          <mxGeometry x="520" y="335" width="120" height="60" as="geometry" />
        </mxCell>
        <mxCell id="EAfGuXRZqebjT4lLK5da-19" style="edgeStyle=orthogonalEdgeStyle;rounded=0;orthogonalLoop=1;jettySize=auto;html=1;" edge="1" parent="WIyWlLk6GJQsqaUBKTNV-1" source="EAfGuXRZqebjT4lLK5da-10" target="EAfGuXRZqebjT4lLK5da-12">
          <mxGeometry relative="1" as="geometry" />
        </mxCell>
        <mxCell id="EAfGuXRZqebjT4lLK5da-21" style="edgeStyle=orthogonalEdgeStyle;rounded=0;orthogonalLoop=1;jettySize=auto;html=1;exitX=1;exitY=0.5;exitDx=0;exitDy=0;entryX=0;entryY=0.5;entryDx=0;entryDy=0;" edge="1" parent="WIyWlLk6GJQsqaUBKTNV-1" source="EAfGuXRZqebjT4lLK5da-10" target="EAfGuXRZqebjT4lLK5da-11">
          <mxGeometry relative="1" as="geometry" />
        </mxCell>
        <mxCell id="EAfGuXRZqebjT4lLK5da-10" value="is bottom true&lt;div&gt;&amp;nbsp;and bottom isn&#39;t&lt;div&gt;&amp;nbsp;visited?&lt;/div&gt;&lt;/div&gt;" style="rhombus;whiteSpace=wrap;html=1;" vertex="1" parent="WIyWlLk6GJQsqaUBKTNV-1">
          <mxGeometry x="335" y="475" width="110" height="110" as="geometry" />
        </mxCell>
        <mxCell id="EAfGuXRZqebjT4lLK5da-27" style="edgeStyle=orthogonalEdgeStyle;rounded=0;orthogonalLoop=1;jettySize=auto;html=1;exitX=1;exitY=0.5;exitDx=0;exitDy=0;" edge="1" parent="WIyWlLk6GJQsqaUBKTNV-1" source="EAfGuXRZqebjT4lLK5da-11" target="EAfGuXRZqebjT4lLK5da-12">
          <mxGeometry relative="1" as="geometry" />
        </mxCell>
        <mxCell id="EAfGuXRZqebjT4lLK5da-11" value="add result from check_cell: bottom result to the list" style="rounded=1;whiteSpace=wrap;html=1;" vertex="1" parent="WIyWlLk6GJQsqaUBKTNV-1">
          <mxGeometry x="520" y="500" width="120" height="60" as="geometry" />
        </mxCell>
        <mxCell id="EAfGuXRZqebjT4lLK5da-20" style="edgeStyle=orthogonalEdgeStyle;rounded=0;orthogonalLoop=1;jettySize=auto;html=1;" edge="1" parent="WIyWlLk6GJQsqaUBKTNV-1" source="EAfGuXRZqebjT4lLK5da-12" target="EAfGuXRZqebjT4lLK5da-14">
          <mxGeometry relative="1" as="geometry" />
        </mxCell>
        <mxCell id="EAfGuXRZqebjT4lLK5da-22" style="edgeStyle=orthogonalEdgeStyle;rounded=0;orthogonalLoop=1;jettySize=auto;html=1;exitX=1;exitY=0.5;exitDx=0;exitDy=0;" edge="1" parent="WIyWlLk6GJQsqaUBKTNV-1" source="EAfGuXRZqebjT4lLK5da-12" target="EAfGuXRZqebjT4lLK5da-13">
          <mxGeometry relative="1" as="geometry" />
        </mxCell>
        <mxCell id="EAfGuXRZqebjT4lLK5da-12" value="is left true and left isn&#39;t visited?" style="rhombus;whiteSpace=wrap;html=1;" vertex="1" parent="WIyWlLk6GJQsqaUBKTNV-1">
          <mxGeometry x="335" y="630" width="110" height="110" as="geometry" />
        </mxCell>
        <mxCell id="EAfGuXRZqebjT4lLK5da-38" style="edgeStyle=orthogonalEdgeStyle;rounded=0;orthogonalLoop=1;jettySize=auto;html=1;exitX=1;exitY=0.5;exitDx=0;exitDy=0;" edge="1" parent="WIyWlLk6GJQsqaUBKTNV-1" source="EAfGuXRZqebjT4lLK5da-13" target="EAfGuXRZqebjT4lLK5da-14">
          <mxGeometry relative="1" as="geometry" />
        </mxCell>
        <mxCell id="EAfGuXRZqebjT4lLK5da-13" value="add result from check_cell: left result to the list" style="rounded=1;whiteSpace=wrap;html=1;" vertex="1" parent="WIyWlLk6GJQsqaUBKTNV-1">
          <mxGeometry x="520" y="655" width="120" height="60" as="geometry" />
        </mxCell>
        <mxCell id="EAfGuXRZqebjT4lLK5da-23" style="edgeStyle=orthogonalEdgeStyle;rounded=0;orthogonalLoop=1;jettySize=auto;html=1;exitX=1;exitY=0.5;exitDx=0;exitDy=0;" edge="1" parent="WIyWlLk6GJQsqaUBKTNV-1" source="EAfGuXRZqebjT4lLK5da-14" target="EAfGuXRZqebjT4lLK5da-15">
          <mxGeometry relative="1" as="geometry" />
        </mxCell>
        <mxCell id="EAfGuXRZqebjT4lLK5da-42" style="edgeStyle=orthogonalEdgeStyle;rounded=0;orthogonalLoop=1;jettySize=auto;html=1;" edge="1" parent="WIyWlLk6GJQsqaUBKTNV-1" source="EAfGuXRZqebjT4lLK5da-14" target="EAfGuXRZqebjT4lLK5da-39">
          <mxGeometry relative="1" as="geometry" />
        </mxCell>
        <mxCell id="EAfGuXRZqebjT4lLK5da-14" value="is right true and right isn&#39;t visited?" style="rhombus;whiteSpace=wrap;html=1;" vertex="1" parent="WIyWlLk6GJQsqaUBKTNV-1">
          <mxGeometry x="335" y="780" width="110" height="110" as="geometry" />
        </mxCell>
        <mxCell id="EAfGuXRZqebjT4lLK5da-47" style="edgeStyle=orthogonalEdgeStyle;rounded=0;orthogonalLoop=1;jettySize=auto;html=1;exitX=1;exitY=0.5;exitDx=0;exitDy=0;entryX=0.5;entryY=0;entryDx=0;entryDy=0;" edge="1" parent="WIyWlLk6GJQsqaUBKTNV-1" source="EAfGuXRZqebjT4lLK5da-15" target="EAfGuXRZqebjT4lLK5da-39">
          <mxGeometry relative="1" as="geometry" />
        </mxCell>
        <mxCell id="EAfGuXRZqebjT4lLK5da-15" value="add result from check_cell: right result to the list" style="rounded=1;whiteSpace=wrap;html=1;" vertex="1" parent="WIyWlLk6GJQsqaUBKTNV-1">
          <mxGeometry x="520" y="805" width="120" height="60" as="geometry" />
        </mxCell>
        <mxCell id="EAfGuXRZqebjT4lLK5da-30" value="yes" style="text;html=1;align=center;verticalAlign=middle;whiteSpace=wrap;rounded=0;" vertex="1" parent="WIyWlLk6GJQsqaUBKTNV-1">
          <mxGeometry x="445" y="340" width="60" height="30" as="geometry" />
        </mxCell>
        <mxCell id="EAfGuXRZqebjT4lLK5da-31" value="yes" style="text;html=1;align=center;verticalAlign=middle;whiteSpace=wrap;rounded=0;" vertex="1" parent="WIyWlLk6GJQsqaUBKTNV-1">
          <mxGeometry x="447.5" y="500" width="60" height="30" as="geometry" />
        </mxCell>
        <mxCell id="EAfGuXRZqebjT4lLK5da-32" value="yes" style="text;html=1;align=center;verticalAlign=middle;whiteSpace=wrap;rounded=0;" vertex="1" parent="WIyWlLk6GJQsqaUBKTNV-1">
          <mxGeometry x="450" y="660" width="60" height="30" as="geometry" />
        </mxCell>
        <mxCell id="EAfGuXRZqebjT4lLK5da-33" value="yes" style="text;html=1;align=center;verticalAlign=middle;whiteSpace=wrap;rounded=0;" vertex="1" parent="WIyWlLk6GJQsqaUBKTNV-1">
          <mxGeometry x="450" y="810" width="60" height="30" as="geometry" />
        </mxCell>
        <mxCell id="EAfGuXRZqebjT4lLK5da-34" value="no" style="text;html=1;align=center;verticalAlign=middle;whiteSpace=wrap;rounded=0;" vertex="1" parent="WIyWlLk6GJQsqaUBKTNV-1">
          <mxGeometry x="330" y="420" width="60" height="30" as="geometry" />
        </mxCell>
        <mxCell id="EAfGuXRZqebjT4lLK5da-35" value="no" style="text;html=1;align=center;verticalAlign=middle;whiteSpace=wrap;rounded=0;" vertex="1" parent="WIyWlLk6GJQsqaUBKTNV-1">
          <mxGeometry x="332.5" y="580" width="60" height="30" as="geometry" />
        </mxCell>
        <mxCell id="EAfGuXRZqebjT4lLK5da-36" value="no" style="text;html=1;align=center;verticalAlign=middle;whiteSpace=wrap;rounded=0;" vertex="1" parent="WIyWlLk6GJQsqaUBKTNV-1">
          <mxGeometry x="330" y="740" width="60" height="30" as="geometry" />
        </mxCell>
        <mxCell id="EAfGuXRZqebjT4lLK5da-43" style="edgeStyle=orthogonalEdgeStyle;rounded=0;orthogonalLoop=1;jettySize=auto;html=1;" edge="1" parent="WIyWlLk6GJQsqaUBKTNV-1" source="EAfGuXRZqebjT4lLK5da-39" target="EAfGuXRZqebjT4lLK5da-40">
          <mxGeometry relative="1" as="geometry" />
        </mxCell>
        <mxCell id="EAfGuXRZqebjT4lLK5da-39" value="return a random choice of the choices in the list neighbours" style="rounded=1;whiteSpace=wrap;html=1;" vertex="1" parent="WIyWlLk6GJQsqaUBKTNV-1">
          <mxGeometry x="330" y="940" width="120" height="60" as="geometry" />
        </mxCell>
        <mxCell id="EAfGuXRZqebjT4lLK5da-44" style="edgeStyle=orthogonalEdgeStyle;rounded=0;orthogonalLoop=1;jettySize=auto;html=1;exitX=0.5;exitY=1;exitDx=0;exitDy=0;" edge="1" parent="WIyWlLk6GJQsqaUBKTNV-1" source="EAfGuXRZqebjT4lLK5da-40" target="EAfGuXRZqebjT4lLK5da-41">
          <mxGeometry relative="1" as="geometry" />
        </mxCell>
        <mxCell id="EAfGuXRZqebjT4lLK5da-40" value="return false if no items are in the lists&amp;nbsp;" style="rounded=1;whiteSpace=wrap;html=1;" vertex="1" parent="WIyWlLk6GJQsqaUBKTNV-1">
          <mxGeometry x="330" y="1050" width="120" height="60" as="geometry" />
        </mxCell>
        <mxCell id="EAfGuXRZqebjT4lLK5da-41" value="end" style="ellipse;whiteSpace=wrap;html=1;" vertex="1" parent="WIyWlLk6GJQsqaUBKTNV-1">
          <mxGeometry x="330" y="1169" width="120" height="50" as="geometry" />
        </mxCell>
        <mxCell id="EAfGuXRZqebjT4lLK5da-48" value="no" style="text;html=1;align=center;verticalAlign=middle;whiteSpace=wrap;rounded=0;" vertex="1" parent="WIyWlLk6GJQsqaUBKTNV-1">
          <mxGeometry x="330" y="890" width="60" height="30" as="geometry" />
        </mxCell>
      </root>
    </mxGraphModel>
  </diagram>
</mxfile>
